<svg xmlns="http://www.w3.org/2000/svg" xmlns:xlink="http://www.w3.org/1999/xlink" width="507" zoomAndPan="magnify" viewBox="0 0 380.25 210.749994" height="281" preserveAspectRatio="xMidYMid meet" version="1.0"><defs><g/><clipPath id="8452411236"><path d="M 266.476562 83.082031 L 304.652344 83.082031 L 304.652344 114.519531 L 266.476562 114.519531 Z M 266.476562 83.082031 " clip-rule="nonzero"/></clipPath></defs><g fill="#102048" fill-opacity="1"><g transform="translate(75.142185, 111.56076)"><g><path d="M 11.5625 0.59375 C 9.707031 0.59375 7.96875 0.171875 6.34375 -0.671875 C 5.613281 -1.035156 5 -1.460938 4.5 -1.953125 C 4.132812 -1.359375 3.679688 -0.828125 3.140625 -0.359375 C 2.660156 -0.015625 2.394531 0.171875 2.34375 0.203125 L 1.375 0.203125 L 1.375 -7.25 L 2.9375 -7.25 C 3.332031 -5.96875 3.878906 -4.816406 4.578125 -3.796875 C 6.171875 -1.523438 8.234375 -0.390625 10.765625 -0.390625 C 12.253906 -0.390625 13.441406 -0.832031 14.328125 -1.71875 C 15.222656 -2.613281 15.671875 -3.800781 15.671875 -5.28125 C 15.671875 -6.144531 15.414062 -6.914062 14.90625 -7.59375 C 14.394531 -8.28125 13.757812 -8.882812 13 -9.40625 C 12.25 -9.925781 11.191406 -10.578125 9.828125 -11.359375 C 8.109375 -12.328125 6.710938 -13.203125 5.640625 -13.984375 C 4.566406 -14.765625 3.648438 -15.75 2.890625 -16.9375 C 2.140625 -18.125 1.765625 -19.53125 1.765625 -21.15625 C 1.765625 -22.4375 2.125 -23.59375 2.84375 -24.625 C 3.5625 -25.65625 4.632812 -26.476562 6.0625 -27.09375 C 7.5 -27.707031 9.265625 -28.015625 11.359375 -28.015625 C 12.867188 -28.015625 14.382812 -27.582031 15.90625 -26.71875 C 16.476562 -26.40625 17.050781 -25.988281 17.625 -25.46875 C 18.070312 -26.144531 18.53125 -26.675781 19 -27.0625 C 19.46875 -27.40625 19.726562 -27.585938 19.78125 -27.609375 L 20.765625 -27.609375 L 20.765625 -20.171875 L 19.1875 -20.171875 C 18.851562 -21.421875 18.347656 -22.554688 17.671875 -23.578125 C 17.035156 -24.566406 16.253906 -25.390625 15.328125 -26.046875 C 14.398438 -26.703125 13.335938 -27.03125 12.140625 -27.03125 C 11.117188 -27.03125 10.242188 -26.625 9.515625 -25.8125 C 8.785156 -25 8.421875 -23.96875 8.421875 -22.71875 C 8.421875 -21.75 8.703125 -20.878906 9.265625 -20.109375 C 9.828125 -19.335938 10.519531 -18.664062 11.34375 -18.09375 C 12.164062 -17.519531 13.28125 -16.828125 14.6875 -16.015625 C 16.332031 -15.078125 17.664062 -14.242188 18.6875 -13.515625 C 19.707031 -12.785156 20.566406 -11.878906 21.265625 -10.796875 C 21.972656 -9.710938 22.328125 -8.460938 22.328125 -7.046875 C 22.328125 -5.640625 21.921875 -4.351562 21.109375 -3.1875 C 20.304688 -2.03125 19.09375 -1.109375 17.46875 -0.421875 C 15.851562 0.253906 13.882812 0.59375 11.5625 0.59375 Z M 11.5625 0.59375 "/></g></g></g><g fill="#102048" fill-opacity="1"><g transform="translate(98.448953, 111.56076)"><g><path d="M 11.953125 0.59375 C 8.710938 0.59375 6.171875 -0.328125 4.328125 -2.171875 C 2.484375 -4.015625 1.5625 -6.554688 1.5625 -9.796875 C 1.5625 -13.035156 2.484375 -15.570312 4.328125 -17.40625 C 6.171875 -19.25 8.710938 -20.171875 11.953125 -20.171875 C 15.191406 -20.171875 17.726562 -19.25 19.5625 -17.40625 C 21.40625 -15.570312 22.328125 -13.035156 22.328125 -9.796875 C 22.328125 -6.554688 21.40625 -4.015625 19.5625 -2.171875 C 17.726562 -0.328125 15.191406 0.59375 11.953125 0.59375 Z M 11.953125 -0.203125 C 12.992188 -0.203125 13.875 -0.929688 14.59375 -2.390625 C 15.3125 -3.847656 15.671875 -6.316406 15.671875 -9.796875 C 15.671875 -13.265625 15.3125 -15.726562 14.59375 -17.1875 C 13.875 -18.65625 12.992188 -19.390625 11.953125 -19.390625 C 10.898438 -19.390625 10.015625 -18.65625 9.296875 -17.1875 C 8.578125 -15.726562 8.21875 -13.265625 8.21875 -9.796875 C 8.21875 -6.316406 8.578125 -3.847656 9.296875 -2.390625 C 10.015625 -0.929688 10.898438 -0.203125 11.953125 -0.203125 Z M 11.953125 -0.203125 "/></g></g></g><g fill="#102048" fill-opacity="1"><g transform="translate(122.343284, 111.56076)"><g><path d="M 5.875 8.421875 C 4.695312 8.421875 3.78125 8.109375 3.125 7.484375 C 2.476562 6.859375 2.15625 5.992188 2.15625 4.890625 C 2.15625 3.898438 2.421875 3.128906 2.953125 2.578125 C 3.492188 2.035156 4.207031 1.765625 5.09375 1.765625 C 5.300781 1.765625 5.507812 1.78125 5.71875 1.8125 C 5.925781 1.851562 6.070312 1.875 6.15625 1.875 L 6.65625 1.953125 L 6.65625 7.25 C 7.414062 7.113281 8.082031 6.691406 8.65625 5.984375 C 9.226562 5.285156 9.867188 4.070312 10.578125 2.34375 L 11.359375 0.390625 L 1.171875 -18.40625 L -0.78125 -19 L -0.78125 -19.59375 L 4.109375 -19.59375 C 5.472656 -19.59375 6.550781 -19.3125 7.34375 -18.75 C 8.144531 -18.1875 8.832031 -17.351562 9.40625 -16.25 L 14.296875 -7.203125 L 18.40625 -17.828125 L 15.46875 -19 L 15.46875 -19.59375 L 22.71875 -19.59375 L 22.71875 -19 L 19.59375 -17.828125 L 11.75 2.34375 C 10.914062 4.488281 10.023438 6.035156 9.078125 6.984375 C 8.140625 7.941406 7.070312 8.421875 5.875 8.421875 Z M 5.875 8.421875 "/></g></g></g><g fill="#102048" fill-opacity="1"><g transform="translate(144.279064, 111.56076)"><g/></g></g><g fill="#102048" fill-opacity="1"><g transform="translate(155.241157, 111.56076)"><g><path d="M 11.5625 0.59375 C 9.707031 0.59375 7.96875 0.171875 6.34375 -0.671875 C 5.613281 -1.035156 5 -1.460938 4.5 -1.953125 C 4.132812 -1.359375 3.679688 -0.828125 3.140625 -0.359375 C 2.660156 -0.015625 2.394531 0.171875 2.34375 0.203125 L 1.375 0.203125 L 1.375 -7.25 L 2.9375 -7.25 C 3.332031 -5.96875 3.878906 -4.816406 4.578125 -3.796875 C 6.171875 -1.523438 8.234375 -0.390625 10.765625 -0.390625 C 12.253906 -0.390625 13.441406 -0.832031 14.328125 -1.71875 C 15.222656 -2.613281 15.671875 -3.800781 15.671875 -5.28125 C 15.671875 -6.144531 15.414062 -6.914062 14.90625 -7.59375 C 14.394531 -8.28125 13.757812 -8.882812 13 -9.40625 C 12.25 -9.925781 11.191406 -10.578125 9.828125 -11.359375 C 8.109375 -12.328125 6.710938 -13.203125 5.640625 -13.984375 C 4.566406 -14.765625 3.648438 -15.75 2.890625 -16.9375 C 2.140625 -18.125 1.765625 -19.53125 1.765625 -21.15625 C 1.765625 -22.4375 2.125 -23.59375 2.84375 -24.625 C 3.5625 -25.65625 4.632812 -26.476562 6.0625 -27.09375 C 7.5 -27.707031 9.265625 -28.015625 11.359375 -28.015625 C 12.867188 -28.015625 14.382812 -27.582031 15.90625 -26.71875 C 16.476562 -26.40625 17.050781 -25.988281 17.625 -25.46875 C 18.070312 -26.144531 18.53125 -26.675781 19 -27.0625 C 19.46875 -27.40625 19.726562 -27.585938 19.78125 -27.609375 L 20.765625 -27.609375 L 20.765625 -20.171875 L 19.1875 -20.171875 C 18.851562 -21.421875 18.347656 -22.554688 17.671875 -23.578125 C 17.035156 -24.566406 16.253906 -25.390625 15.328125 -26.046875 C 14.398438 -26.703125 13.335938 -27.03125 12.140625 -27.03125 C 11.117188 -27.03125 10.242188 -26.625 9.515625 -25.8125 C 8.785156 -25 8.421875 -23.96875 8.421875 -22.71875 C 8.421875 -21.75 8.703125 -20.878906 9.265625 -20.109375 C 9.828125 -19.335938 10.519531 -18.664062 11.34375 -18.09375 C 12.164062 -17.519531 13.28125 -16.828125 14.6875 -16.015625 C 16.332031 -15.078125 17.664062 -14.242188 18.6875 -13.515625 C 19.707031 -12.785156 20.566406 -11.878906 21.265625 -10.796875 C 21.972656 -9.710938 22.328125 -8.460938 22.328125 -7.046875 C 22.328125 -5.640625 21.921875 -4.351562 21.109375 -3.1875 C 20.304688 -2.03125 19.09375 -1.109375 17.46875 -0.421875 C 15.851562 0.253906 13.882812 0.59375 11.5625 0.59375 Z M 11.5625 0.59375 "/></g></g></g><g fill="#102048" fill-opacity="1"><g transform="translate(178.547925, 111.56076)"><g><path d="M 11.953125 0.59375 C 8.710938 0.59375 6.171875 -0.328125 4.328125 -2.171875 C 2.484375 -4.015625 1.5625 -6.554688 1.5625 -9.796875 C 1.5625 -13.035156 2.484375 -15.570312 4.328125 -17.40625 C 6.171875 -19.25 8.710938 -20.171875 11.953125 -20.171875 C 15.191406 -20.171875 17.726562 -19.25 19.5625 -17.40625 C 21.40625 -15.570312 22.328125 -13.035156 22.328125 -9.796875 C 22.328125 -6.554688 21.40625 -4.015625 19.5625 -2.171875 C 17.726562 -0.328125 15.191406 0.59375 11.953125 0.59375 Z M 11.953125 -0.203125 C 12.992188 -0.203125 13.875 -0.929688 14.59375 -2.390625 C 15.3125 -3.847656 15.671875 -6.316406 15.671875 -9.796875 C 15.671875 -13.265625 15.3125 -15.726562 14.59375 -17.1875 C 13.875 -18.65625 12.992188 -19.390625 11.953125 -19.390625 C 10.898438 -19.390625 10.015625 -18.65625 9.296875 -17.1875 C 8.578125 -15.726562 8.21875 -13.265625 8.21875 -9.796875 C 8.21875 -6.316406 8.578125 -3.847656 9.296875 -2.390625 C 10.015625 -0.929688 10.898438 -0.203125 11.953125 -0.203125 Z M 11.953125 -0.203125 "/></g></g></g><g fill="#102048" fill-opacity="1"><g transform="translate(202.442256, 111.56076)"><g><path d="M 12.140625 0.59375 C 8.796875 0.59375 6.195312 -0.328125 4.34375 -2.171875 C 2.488281 -4.015625 1.5625 -6.554688 1.5625 -9.796875 C 1.5625 -13.035156 2.488281 -15.570312 4.34375 -17.40625 C 6.195312 -19.25 8.796875 -20.171875 12.140625 -20.171875 C 14.546875 -20.171875 16.351562 -19.753906 17.5625 -18.921875 C 18.78125 -18.085938 19.390625 -17.066406 19.390625 -15.859375 C 19.390625 -14.972656 19.117188 -14.257812 18.578125 -13.71875 C 18.046875 -13.1875 17.335938 -12.921875 16.453125 -12.921875 C 16.085938 -12.921875 15.722656 -12.945312 15.359375 -13 L 14.890625 -13.125 L 14.890625 -19 L 14.34375 -19.1875 C 13.945312 -19.320312 13.472656 -19.390625 12.921875 -19.390625 C 11.429688 -19.390625 10.273438 -18.679688 9.453125 -17.265625 C 8.628906 -15.859375 8.21875 -13.367188 8.21875 -9.796875 C 8.21875 -6.316406 8.628906 -3.878906 9.453125 -2.484375 C 10.273438 -1.085938 11.429688 -0.390625 12.921875 -0.390625 C 13.941406 -0.390625 14.890625 -0.628906 15.765625 -1.109375 C 16.640625 -1.597656 17.332031 -2.238281 17.84375 -3.03125 C 18.351562 -3.832031 18.609375 -4.648438 18.609375 -5.484375 L 19.59375 -5.484375 C 19.59375 -4.441406 19.273438 -3.445312 18.640625 -2.5 C 18.015625 -1.5625 17.140625 -0.8125 16.015625 -0.25 C 14.898438 0.3125 13.609375 0.59375 12.140625 0.59375 Z M 12.140625 0.59375 "/></g></g></g><g fill="#102048" fill-opacity="1"><g transform="translate(223.202903, 111.56076)"><g><path d="M 1.5625 -0.59375 L 3.921875 -1.171875 L 3.921875 -18.40625 L 1.5625 -19 L 1.5625 -19.59375 L 6.65625 -19.59375 C 9.007812 -19.59375 10.1875 -18.414062 10.1875 -16.0625 L 10.1875 -1.171875 L 12.53125 -0.59375 L 12.53125 0 L 1.5625 0 Z M 6.65625 -21.9375 C 5.875 -21.9375 5.222656 -22.195312 4.703125 -22.71875 C 4.179688 -23.238281 3.921875 -23.890625 3.921875 -24.671875 C 3.921875 -25.460938 4.179688 -26.117188 4.703125 -26.640625 C 5.222656 -27.160156 5.875 -27.421875 6.65625 -27.421875 C 7.445312 -27.421875 8.101562 -27.160156 8.625 -26.640625 C 9.144531 -26.117188 9.40625 -25.460938 9.40625 -24.671875 C 9.40625 -23.890625 9.144531 -23.238281 8.625 -22.71875 C 8.101562 -22.195312 7.445312 -21.9375 6.65625 -21.9375 Z M 6.65625 -21.9375 "/></g></g></g><g fill="#102048" fill-opacity="1"><g transform="translate(236.521054, 111.56076)"><g><path d="M 9.203125 0.59375 C 6.878906 0.59375 5.085938 0.0976562 3.828125 -0.890625 C 2.578125 -1.890625 1.953125 -3.160156 1.953125 -4.703125 C 1.953125 -5.722656 2.175781 -6.726562 2.625 -7.71875 C 2.8125 -8.1875 3.046875 -8.617188 3.328125 -9.015625 C 4.398438 -9.273438 5.5625 -9.507812 6.8125 -9.71875 C 9.632812 -10.1875 12.128906 -10.472656 14.296875 -10.578125 L 14.296875 -11.75 C 14.296875 -14.644531 13.941406 -16.640625 13.234375 -17.734375 C 12.535156 -18.835938 11.453125 -19.390625 9.984375 -19.390625 C 9.441406 -19.390625 8.972656 -19.320312 8.578125 -19.1875 L 8.03125 -19 L 8.03125 -13.125 L 7.515625 -13 C 7.097656 -12.945312 6.75 -12.921875 6.46875 -12.921875 C 5.570312 -12.921875 4.859375 -13.1875 4.328125 -13.71875 C 3.796875 -14.257812 3.53125 -14.972656 3.53125 -15.859375 C 3.53125 -17.066406 4.132812 -18.085938 5.34375 -18.921875 C 6.5625 -19.753906 8.367188 -20.171875 10.765625 -20.171875 C 12.804688 -20.171875 14.5625 -19.8125 16.03125 -19.09375 C 17.507812 -18.375 18.632812 -17.378906 19.40625 -16.109375 C 20.175781 -14.847656 20.5625 -13.394531 20.5625 -11.75 L 20.5625 -1.171875 L 22.921875 -0.59375 L 22.921875 0 L 19.390625 0 C 17.828125 0 16.613281 -0.484375 15.75 -1.453125 C 15.382812 -1.835938 15.097656 -2.332031 14.890625 -2.9375 C 14.523438 -2.28125 14.09375 -1.691406 13.59375 -1.171875 C 12.414062 0.00390625 10.953125 0.59375 9.203125 0.59375 Z M 10.765625 -0.78125 C 11.734375 -0.78125 12.609375 -1.300781 13.390625 -2.34375 C 13.679688 -2.738281 13.984375 -3.265625 14.296875 -3.921875 L 14.296875 -9.59375 C 13.097656 -9.59375 11.945312 -9.53125 10.84375 -9.40625 C 10.039062 -9.300781 9.492188 -9.234375 9.203125 -9.203125 C 9.078125 -8.921875 8.945312 -8.53125 8.8125 -8.03125 C 8.550781 -7.039062 8.421875 -6.0625 8.421875 -5.09375 C 8.421875 -3.632812 8.640625 -2.550781 9.078125 -1.84375 C 9.523438 -1.132812 10.085938 -0.78125 10.765625 -0.78125 Z M 10.765625 -0.78125 "/></g></g></g><g fill="#102048" fill-opacity="1"><g transform="translate(75.142185, 131.832022)"><g><path d="M 3.652344 -2.011719 L 3.652344 -8.144531 L 2.8125 -8.144531 L 2.8125 -2.011719 C 2.8125 -1.496094 2.609375 -1.136719 2.226562 -0.921875 C 1.902344 -0.730469 1.507812 -0.671875 1.042969 -0.730469 C 0.609375 -0.777344 0.277344 -0.898438 0.0585938 -1.089844 L 0.0585938 -0.167969 C 0.132812 -0.0976562 0.277344 -0.0351562 0.492188 0.0234375 C 0.707031 0.0820312 0.945312 0.121094 1.210938 0.121094 C 1.855469 0.144531 2.394531 0.0117188 2.828125 -0.289062 C 3.378906 -0.648438 3.652344 -1.222656 3.652344 -2.011719 Z M 3.652344 -2.011719 "/></g></g></g><g fill="#102048" fill-opacity="1"><g transform="translate(81.357933, 131.832022)"><g><path d="M 6.789062 -2.695312 L 6.789062 -8.144531 L 5.953125 -8.144531 L 5.953125 -2.574219 C 5.953125 -2.238281 5.890625 -1.964844 5.773438 -1.738281 C 5.425781 -1.066406 4.753906 -0.730469 3.761719 -0.730469 C 3.113281 -0.730469 2.597656 -0.875 2.214844 -1.160156 C 1.773438 -1.484375 1.558594 -1.953125 1.558594 -2.574219 L 1.558594 -8.144531 L 0.71875 -8.144531 L 0.71875 -2.695312 C 0.71875 -1.808594 1.007812 -1.113281 1.582031 -0.609375 C 2.121094 -0.132812 2.851562 0.109375 3.761719 0.109375 C 4.660156 0.109375 5.378906 -0.132812 5.929688 -0.609375 C 6.503906 -1.113281 6.789062 -1.808594 6.789062 -2.695312 Z M 6.789062 -2.695312 "/></g></g></g><g fill="#102048" fill-opacity="1"><g transform="translate(90.711494, 131.832022)"><g><path d="M 1.738281 -6 L 6.3125 0.503906 L 6.3125 -8.144531 L 5.472656 -8.144531 L 5.472656 -2.15625 L 0.898438 -8.660156 L 0.898438 0 L 1.738281 0 Z M 1.738281 -6 "/></g></g></g><g fill="#102048" fill-opacity="1"><g transform="translate(99.765648, 131.832022)"><g><path d="M 0.238281 -7.390625 L 2.214844 -7.390625 L 2.214844 -0.0234375 L 3.054688 -0.0234375 L 3.054688 -7.390625 L 5.03125 -7.390625 L 5.03125 -8.167969 L 0.238281 -8.167969 Z M 0.238281 -7.390625 "/></g></g></g><g fill="#102048" fill-opacity="1"><g transform="translate(106.879623, 131.832022)"><g><path d="M 2.214844 -2.992188 L 3.699219 -6.742188 L 5.171875 -2.992188 Z M 7.269531 0 L 3.699219 -8.707031 L 0.121094 0 L 1.03125 0 L 1.902344 -2.214844 L 5.484375 -2.214844 L 6.359375 0 Z M 7.269531 0 "/></g></g></g><g fill="#102048" fill-opacity="1"><g transform="translate(116.113429, 131.832022)"><g><path d="M 3.148438 -3.832031 C 4.203125 -3.582031 4.921875 -3.304688 5.304688 -2.992188 C 5.570312 -2.777344 5.699219 -2.503906 5.699219 -2.167969 C 5.699219 -1.832031 5.628906 -1.558594 5.484375 -1.367188 C 5.125 -0.863281 4.480469 -0.609375 3.570312 -0.609375 C 2.300781 -0.609375 1.582031 -1.042969 1.425781 -1.902344 L 0.441406 -1.902344 C 0.730469 -0.527344 1.773438 0.15625 3.570312 0.15625 C 4.371094 0.15625 5.042969 -0.0117188 5.582031 -0.371094 C 6.226562 -0.789062 6.5625 -1.414062 6.5625 -2.226562 C 6.5625 -2.898438 6.300781 -3.414062 5.773438 -3.773438 C 5.402344 -4.035156 4.800781 -4.277344 3.976562 -4.492188 C 3.136719 -4.707031 2.597656 -4.886719 2.347656 -5.019531 C 1.796875 -5.292969 1.519531 -5.675781 1.53125 -6.179688 C 1.53125 -6.441406 1.582031 -6.671875 1.699219 -6.839844 C 2.011719 -7.304688 2.5625 -7.546875 3.351562 -7.546875 C 4.46875 -7.546875 5.101562 -7.1875 5.269531 -6.492188 L 6.179688 -6.492188 C 5.878906 -7.664062 4.933594 -8.265625 3.351562 -8.265625 C 2.636719 -8.265625 2 -8.070312 1.472656 -7.6875 C 0.933594 -7.304688 0.660156 -6.742188 0.660156 -5.976562 C 0.660156 -4.933594 1.496094 -4.214844 3.148438 -3.832031 Z M 3.148438 -3.832031 "/></g></g></g><g fill="#102048" fill-opacity="1"><g transform="translate(124.832246, 131.832022)"><g/></g></g><g fill="#102048" fill-opacity="1"><g transform="translate(129.910233, 131.832022)"><g><path d="M 8.371094 -2.492188 L 7.449219 -2.492188 C 7.160156 -1.964844 6.765625 -1.53125 6.261719 -1.222656 C 5.761719 -0.898438 5.199219 -0.742188 4.597656 -0.742188 C 3.699219 -0.742188 2.933594 -1.066406 2.300781 -1.738281 C 1.675781 -2.371094 1.378906 -3.148438 1.378906 -4.058594 C 1.378906 -4.96875 1.675781 -5.75 2.300781 -6.394531 C 2.585938 -6.695312 2.933594 -6.933594 3.328125 -7.113281 C 3.710938 -7.292969 4.097656 -7.390625 4.480469 -7.390625 C 4.851562 -7.390625 5.171875 -7.339844 5.460938 -7.257812 C 6.335938 -6.996094 6.996094 -6.46875 7.4375 -5.664062 L 8.359375 -5.664062 C 8.046875 -6.429688 7.558594 -7.054688 6.875 -7.53125 C 6.179688 -8.011719 5.425781 -8.25 4.597656 -8.25 C 3.460938 -8.25 2.503906 -7.832031 1.710938 -7.007812 C 1.339844 -6.621094 1.054688 -6.167969 0.851562 -5.664062 C 0.632812 -5.160156 0.539062 -4.621094 0.539062 -4.058594 C 0.539062 -2.910156 0.921875 -1.941406 1.710938 -1.125 C 2.503906 -0.289062 3.460938 0.121094 4.597656 0.121094 C 5.425781 0.121094 6.179688 -0.121094 6.886719 -0.597656 C 7.570312 -1.078125 8.058594 -1.699219 8.371094 -2.492188 Z M 8.371094 -2.492188 "/></g></g></g><g fill="#102048" fill-opacity="1"><g transform="translate(140.485384, 131.832022)"><g><path d="M 1.738281 -4.023438 L 1.738281 -7.339844 L 3.628906 -7.339844 C 4.121094 -7.339844 4.515625 -7.1875 4.816406 -6.875 C 5.101562 -6.5625 5.257812 -6.179688 5.257812 -5.699219 C 5.257812 -5.222656 5.101562 -4.828125 4.789062 -4.503906 C 4.480469 -4.179688 4.097656 -4.023438 3.628906 -4.023438 Z M 6.097656 -5.6875 C 6.097656 -6.382812 5.832031 -6.980469 5.328125 -7.449219 C 4.839844 -7.90625 4.226562 -8.144531 3.507812 -8.144531 L 0.898438 -8.144531 L 0.898438 0 L 1.738281 0 L 1.738281 -3.222656 L 2.707031 -3.222656 L 5.101562 0 L 6.226562 0 L 3.710938 -3.222656 C 4.347656 -3.257812 4.886719 -3.484375 5.328125 -3.90625 C 5.832031 -4.371094 6.097656 -4.96875 6.097656 -5.6875 Z M 6.097656 -5.6875 "/></g></g></g><g fill="#102048" fill-opacity="1"><g transform="translate(148.844912, 131.832022)"><g><path d="M 5.738281 0 L 5.738281 -0.777344 L 1.738281 -0.777344 L 1.738281 -3.675781 L 5.617188 -3.675781 L 5.617188 -4.46875 L 1.738281 -4.46875 L 1.738281 -7.367188 L 5.738281 -7.367188 L 5.738281 -8.144531 L 0.898438 -8.144531 L 0.898438 0 Z M 5.738281 0 "/></g></g></g><g fill="#102048" fill-opacity="1"><g transform="translate(157.324195, 131.832022)"><g><path d="M 8.371094 -2.492188 L 7.449219 -2.492188 C 7.160156 -1.964844 6.765625 -1.53125 6.261719 -1.222656 C 5.761719 -0.898438 5.199219 -0.742188 4.597656 -0.742188 C 3.699219 -0.742188 2.933594 -1.066406 2.300781 -1.738281 C 1.675781 -2.371094 1.378906 -3.148438 1.378906 -4.058594 C 1.378906 -4.96875 1.675781 -5.75 2.300781 -6.394531 C 2.585938 -6.695312 2.933594 -6.933594 3.328125 -7.113281 C 3.710938 -7.292969 4.097656 -7.390625 4.480469 -7.390625 C 4.851562 -7.390625 5.171875 -7.339844 5.460938 -7.257812 C 6.335938 -6.996094 6.996094 -6.46875 7.4375 -5.664062 L 8.359375 -5.664062 C 8.046875 -6.429688 7.558594 -7.054688 6.875 -7.53125 C 6.179688 -8.011719 5.425781 -8.25 4.597656 -8.25 C 3.460938 -8.25 2.503906 -7.832031 1.710938 -7.007812 C 1.339844 -6.621094 1.054688 -6.167969 0.851562 -5.664062 C 0.632812 -5.160156 0.539062 -4.621094 0.539062 -4.058594 C 0.539062 -2.910156 0.921875 -1.941406 1.710938 -1.125 C 2.503906 -0.289062 3.460938 0.121094 4.597656 0.121094 C 5.425781 0.121094 6.179688 -0.121094 6.886719 -0.597656 C 7.570312 -1.078125 8.058594 -1.699219 8.371094 -2.492188 Z M 8.371094 -2.492188 "/></g></g></g><g fill="#102048" fill-opacity="1"><g transform="translate(167.899347, 131.832022)"><g><path d="M 5.738281 0 L 5.738281 -0.777344 L 1.738281 -0.777344 L 1.738281 -3.675781 L 5.617188 -3.675781 L 5.617188 -4.46875 L 1.738281 -4.46875 L 1.738281 -7.367188 L 5.738281 -7.367188 L 5.738281 -8.144531 L 0.898438 -8.144531 L 0.898438 0 Z M 5.738281 0 "/></g></g></g><g fill="#102048" fill-opacity="1"><g transform="translate(176.37863, 131.832022)"><g><path d="M 8.40625 0 L 9.257812 0 L 7.367188 -8.683594 L 4.695312 -1.710938 L 2.023438 -8.683594 L 0.121094 0 L 0.980469 0 L 2.238281 -5.796875 L 4.695312 0.480469 L 7.136719 -5.796875 Z M 8.40625 0 "/></g></g></g><g fill="#102048" fill-opacity="1"><g transform="translate(187.600522, 131.832022)"><g><path d="M 8.070312 -4.097656 C 8.070312 -3.160156 7.738281 -2.371094 7.089844 -1.722656 C 6.429688 -1.066406 5.640625 -0.742188 4.71875 -0.742188 C 3.796875 -0.742188 3.007812 -1.066406 2.359375 -1.722656 C 1.699219 -2.371094 1.378906 -3.160156 1.378906 -4.097656 C 1.378906 -5.007812 1.699219 -5.796875 2.359375 -6.457031 C 3.007812 -7.101562 3.796875 -7.4375 4.71875 -7.4375 C 5.640625 -7.4375 6.429688 -7.101562 7.089844 -6.457031 C 7.738281 -5.796875 8.070312 -5.007812 8.070312 -4.097656 Z M 8.910156 -4.097656 C 8.910156 -4.671875 8.789062 -5.210938 8.574219 -5.726562 C 8.359375 -6.226562 8.058594 -6.671875 7.675781 -7.054688 C 7.292969 -7.425781 6.851562 -7.726562 6.347656 -7.941406 C 5.832031 -8.15625 5.292969 -8.277344 4.71875 -8.277344 C 4.144531 -8.277344 3.59375 -8.15625 3.089844 -7.941406 C 2.585938 -7.726562 2.144531 -7.425781 1.761719 -7.054688 C 1.378906 -6.671875 1.078125 -6.226562 0.863281 -5.726562 C 0.648438 -5.210938 0.539062 -4.671875 0.539062 -4.097656 C 0.539062 -3.519531 0.648438 -2.96875 0.863281 -2.46875 C 1.078125 -1.953125 1.378906 -1.507812 1.761719 -1.125 C 2.144531 -0.742188 2.585938 -0.441406 3.089844 -0.226562 C 3.59375 -0.0117188 4.144531 0.0976562 4.71875 0.0976562 C 5.292969 0.0976562 5.832031 -0.0117188 6.347656 -0.226562 C 6.851562 -0.441406 7.292969 -0.742188 7.675781 -1.125 C 8.058594 -1.507812 8.359375 -1.953125 8.574219 -2.46875 C 8.789062 -2.96875 8.910156 -3.519531 8.910156 -4.097656 Z M 8.910156 -4.097656 "/></g></g></g><g fill="#102048" fill-opacity="1"><g transform="translate(198.894267, 131.832022)"><g><path d="M 3.148438 -3.832031 C 4.203125 -3.582031 4.921875 -3.304688 5.304688 -2.992188 C 5.570312 -2.777344 5.699219 -2.503906 5.699219 -2.167969 C 5.699219 -1.832031 5.628906 -1.558594 5.484375 -1.367188 C 5.125 -0.863281 4.480469 -0.609375 3.570312 -0.609375 C 2.300781 -0.609375 1.582031 -1.042969 1.425781 -1.902344 L 0.441406 -1.902344 C 0.730469 -0.527344 1.773438 0.15625 3.570312 0.15625 C 4.371094 0.15625 5.042969 -0.0117188 5.582031 -0.371094 C 6.226562 -0.789062 6.5625 -1.414062 6.5625 -2.226562 C 6.5625 -2.898438 6.300781 -3.414062 5.773438 -3.773438 C 5.402344 -4.035156 4.800781 -4.277344 3.976562 -4.492188 C 3.136719 -4.707031 2.597656 -4.886719 2.347656 -5.019531 C 1.796875 -5.292969 1.519531 -5.675781 1.53125 -6.179688 C 1.53125 -6.441406 1.582031 -6.671875 1.699219 -6.839844 C 2.011719 -7.304688 2.5625 -7.546875 3.351562 -7.546875 C 4.46875 -7.546875 5.101562 -7.1875 5.269531 -6.492188 L 6.179688 -6.492188 C 5.878906 -7.664062 4.933594 -8.265625 3.351562 -8.265625 C 2.636719 -8.265625 2 -8.070312 1.472656 -7.6875 C 0.933594 -7.304688 0.660156 -6.742188 0.660156 -5.976562 C 0.660156 -4.933594 1.496094 -4.214844 3.148438 -3.832031 Z M 3.148438 -3.832031 "/></g></g></g><g clip-path="url(#8452411236)"><path fill="#102048" d="M 302.300781 89.25 C 301.277344 87.535156 299.890625 86.199219 298.136719 85.230469 C 297.347656 84.808594 296.519531 84.492188 295.648438 84.28125 C 294.789062 84.050781 293.914062 83.925781 293.023438 83.90625 C 292.132812 83.886719 291.25 83.976562 290.382812 84.167969 C 289.515625 84.363281 288.679688 84.660156 287.886719 85.054688 C 287.089844 85.453125 286.351562 85.9375 285.675781 86.511719 C 285.632812 86.546875 285.582031 86.578125 285.535156 86.613281 C 285.515625 86.621094 285.496094 86.628906 285.472656 86.632812 C 282.003906 83.863281 278.121094 83.0625 273.945312 84.722656 C 272.289062 85.375 270.859375 86.355469 269.65625 87.65625 C 266.679688 90.984375 266.894531 95.203125 266.964844 96.171875 C 267.144531 97.449219 267.515625 98.671875 268.085938 99.832031 C 268.6875 101.007812 269.460938 102.058594 270.410156 102.984375 C 270.523438 103.085938 270.605469 103.210938 270.652344 103.359375 C 270.699219 103.671875 270.800781 103.964844 270.957031 104.242188 C 271.109375 104.519531 271.308594 104.761719 271.546875 104.972656 C 271.785156 105.179688 272.054688 105.34375 272.351562 105.457031 C 272.648438 105.570312 272.957031 105.632812 273.277344 105.636719 C 273.328125 105.648438 273.375 105.65625 273.425781 105.671875 C 273.574219 107.367188 274.496094 108.320312 276.273438 108.472656 C 276.292969 108.617188 276.316406 108.761719 276.332031 108.910156 C 276.367188 109.207031 276.449219 109.492188 276.578125 109.757812 C 276.710938 110.027344 276.882812 110.265625 277.09375 110.476562 C 277.308594 110.6875 277.550781 110.855469 277.824219 110.980469 C 278.09375 111.109375 278.378906 111.1875 278.679688 111.214844 C 279.023438 111.25 279.144531 111.355469 279.179688 111.714844 C 279.21875 112.21875 279.394531 112.664062 279.707031 113.058594 C 280.019531 113.453125 280.414062 113.730469 280.894531 113.886719 C 281.398438 114.089844 281.914062 114.132812 282.445312 114.019531 C 282.976562 113.90625 283.429688 113.652344 283.800781 113.261719 C 284.125 112.949219 284.421875 112.605469 284.84375 112.15625 C 285.335938 112.699219 285.75 113.199219 286.210938 113.652344 C 286.492188 113.9375 286.824219 114.148438 287.207031 114.28125 C 287.589844 114.414062 287.980469 114.453125 288.382812 114.402344 C 288.679688 114.375 288.964844 114.296875 289.238281 114.171875 C 289.511719 114.050781 289.757812 113.882812 289.972656 113.679688 C 290.191406 113.472656 290.367188 113.238281 290.507812 112.972656 C 290.644531 112.707031 290.734375 112.429688 290.777344 112.132812 C 290.804688 111.96875 290.824219 111.800781 290.835938 111.699219 C 291.328125 111.582031 291.808594 111.425781 292.273438 111.230469 C 292.683594 111.027344 293.011719 110.734375 293.261719 110.351562 C 293.511719 109.96875 293.648438 109.550781 293.667969 109.097656 C 293.699219 108.945312 293.789062 108.839844 293.933594 108.78125 C 295.582031 108.503906 296.28125 107.800781 296.519531 106.136719 C 296.53125 106.09375 296.542969 106.050781 296.5625 106.007812 C 296.871094 105.980469 297.171875 105.917969 297.464844 105.816406 L 297.542969 105.78125 C 297.722656 105.71875 297.890625 105.636719 298.054688 105.539062 C 298.082031 105.523438 298.105469 105.507812 298.132812 105.492188 C 298.160156 105.476562 298.1875 105.460938 298.214844 105.445312 C 298.230469 105.433594 298.246094 105.421875 298.261719 105.410156 C 298.316406 105.371094 298.371094 105.328125 298.421875 105.285156 C 298.585938 105.160156 298.730469 105.019531 298.863281 104.863281 C 298.992188 104.703125 299.105469 104.535156 299.199219 104.355469 C 299.746094 103.746094 300.355469 103.199219 300.914062 102.605469 C 301.710938 101.808594 302.351562 100.90625 302.84375 99.898438 C 303.394531 98.792969 303.769531 97.628906 303.960938 96.410156 C 304.480469 92.894531 302.441406 89.484375 302.300781 89.25 Z M 274.1875 103.886719 C 274.066406 103.996094 273.933594 104.078125 273.78125 104.136719 C 273.628906 104.195312 273.472656 104.21875 273.3125 104.214844 C 273.148438 104.210938 272.996094 104.179688 272.847656 104.113281 C 272.699219 104.050781 272.566406 103.960938 272.453125 103.847656 C 272.332031 103.734375 272.234375 103.605469 272.167969 103.457031 C 272.097656 103.308594 272.0625 103.148438 272.058594 102.984375 C 272.050781 102.820312 272.082031 102.664062 272.140625 102.511719 C 272.199219 102.355469 272.285156 102.222656 272.402344 102.101562 C 272.824219 101.628906 273.277344 101.183594 273.753906 100.765625 C 273.996094 100.605469 274.253906 100.476562 274.53125 100.386719 C 274.792969 100.390625 275.035156 100.46875 275.257812 100.609375 C 275.476562 100.753906 275.644531 100.945312 275.753906 101.183594 C 275.875 101.402344 275.914062 101.632812 275.882812 101.878906 C 275.847656 102.128906 275.742188 102.339844 275.566406 102.515625 C 275.128906 102.996094 274.667969 103.453125 274.1875 103.890625 Z M 277.011719 106.707031 C 276.824219 106.882812 276.605469 106.988281 276.347656 107.019531 C 276.09375 107.050781 275.851562 107.007812 275.625 106.886719 C 275.140625 106.660156 274.921875 106.257812 274.902344 105.566406 C 274.988281 105.328125 275.105469 105.109375 275.253906 104.902344 C 275.65625 104.449219 276.085938 104.019531 276.535156 103.613281 C 276.652344 103.5 276.789062 103.410156 276.941406 103.347656 C 277.09375 103.289062 277.253906 103.253906 277.417969 103.253906 C 277.582031 103.253906 277.742188 103.28125 277.894531 103.339844 C 278.050781 103.398438 278.1875 103.480469 278.308594 103.59375 C 278.433594 103.703125 278.535156 103.835938 278.605469 103.988281 C 278.675781 104.140625 278.714844 104.300781 278.722656 104.46875 C 278.726562 104.636719 278.699219 104.800781 278.636719 104.957031 C 278.578125 105.113281 278.484375 105.253906 278.367188 105.371094 C 277.9375 105.839844 277.488281 106.285156 277.011719 106.710938 Z M 279.949219 109.441406 C 279.828125 109.5625 279.691406 109.660156 279.53125 109.726562 C 279.375 109.792969 279.207031 109.828125 279.035156 109.832031 C 278.863281 109.832031 278.699219 109.800781 278.539062 109.738281 C 278.378906 109.671875 278.238281 109.582031 278.113281 109.460938 C 277.992188 109.339844 277.898438 109.199219 277.835938 109.042969 C 277.769531 108.882812 277.738281 108.71875 277.742188 108.546875 C 277.742188 108.375 277.78125 108.210938 277.847656 108.054688 C 277.917969 107.898438 278.015625 107.761719 278.140625 107.644531 C 278.542969 107.230469 278.949219 106.816406 279.375 106.425781 C 279.558594 106.234375 279.78125 106.117188 280.039062 106.070312 C 280.300781 106.023438 280.550781 106.058594 280.789062 106.171875 C 281.292969 106.402344 281.515625 106.8125 281.566406 107.503906 C 281.457031 107.765625 281.316406 108.015625 281.148438 108.246094 C 280.769531 108.664062 280.371094 109.0625 279.949219 109.441406 Z M 284.03125 111.007812 C 283.621094 111.457031 283.191406 111.878906 282.734375 112.28125 C 282.515625 112.4375 282.277344 112.558594 282.023438 112.648438 C 281.757812 112.671875 281.503906 112.621094 281.269531 112.492188 C 281.03125 112.363281 280.851562 112.183594 280.726562 111.945312 C 280.601562 111.738281 280.550781 111.515625 280.570312 111.273438 C 280.589844 111.035156 280.675781 110.820312 280.835938 110.636719 C 281.296875 110.105469 281.796875 109.609375 282.332031 109.148438 C 282.453125 109.042969 282.59375 108.964844 282.746094 108.917969 C 282.902344 108.867188 283.058594 108.847656 283.222656 108.863281 C 283.382812 108.875 283.535156 108.917969 283.679688 108.992188 C 283.824219 109.066406 283.949219 109.164062 284.050781 109.285156 C 284.160156 109.402344 284.246094 109.535156 284.304688 109.6875 C 284.359375 109.835938 284.390625 109.992188 284.386719 110.152344 C 284.386719 110.3125 284.351562 110.464844 284.292969 110.613281 C 284.230469 110.761719 284.144531 110.894531 284.03125 111.007812 Z M 297.527344 104.179688 C 297.40625 104.300781 297.265625 104.390625 297.101562 104.453125 L 297.066406 104.46875 C 296.800781 104.546875 296.539062 104.546875 296.273438 104.46875 C 296.007812 104.394531 295.785156 104.25 295.605469 104.042969 C 293.761719 102.230469 291.925781 100.410156 290.09375 98.589844 C 290.03125 98.53125 289.976562 98.464844 289.914062 98.410156 C 289.765625 98.261719 289.589844 98.183594 289.378906 98.183594 C 289.167969 98.179688 288.988281 98.253906 288.839844 98.398438 C 288.703125 98.550781 288.640625 98.726562 288.652344 98.925781 C 288.667969 99.128906 288.75 99.292969 288.90625 99.425781 C 289.40625 99.941406 289.925781 100.441406 290.4375 100.949219 C 291.863281 102.363281 293.289062 103.769531 294.707031 105.191406 C 294.910156 105.390625 295.03125 105.632812 295.070312 105.914062 C 295.109375 106.195312 295.058594 106.460938 294.914062 106.710938 C 294.78125 106.953125 294.585938 107.132812 294.328125 107.242188 C 294.070312 107.351562 293.804688 107.375 293.535156 107.304688 C 293.261719 107.226562 293.023438 107.089844 292.820312 106.890625 C 290.960938 105.074219 289.117188 103.242188 287.269531 101.414062 C 287.191406 101.332031 287.109375 101.253906 287.019531 101.183594 C 286.878906 101.050781 286.710938 100.988281 286.515625 100.988281 C 286.324219 100.992188 286.15625 101.0625 286.019531 101.199219 C 285.878906 101.332031 285.808594 101.496094 285.808594 101.691406 C 285.808594 101.886719 285.882812 102.050781 286.027344 102.183594 C 286.632812 102.816406 287.261719 103.425781 287.882812 104.042969 C 289.1875 105.335938 290.496094 106.625 291.796875 107.921875 C 291.921875 108.03125 292.023438 108.164062 292.097656 108.3125 C 292.171875 108.464844 292.21875 108.621094 292.230469 108.789062 C 292.246094 108.957031 292.226562 109.117188 292.175781 109.277344 C 292.125 109.4375 292.046875 109.582031 291.941406 109.714844 C 291.824219 109.851562 291.6875 109.957031 291.523438 110.035156 C 291.363281 110.113281 291.191406 110.15625 291.011719 110.164062 C 290.832031 110.171875 290.660156 110.140625 290.492188 110.074219 C 290.324219 110.007812 290.179688 109.910156 290.050781 109.78125 C 289.125 108.890625 288.222656 107.976562 287.304688 107.074219 C 286.910156 106.6875 286.507812 106.3125 286.109375 105.9375 C 286.054688 105.886719 285.996094 105.839844 285.9375 105.796875 L 283.714844 103.589844 C 283.578125 103.453125 283.414062 103.386719 283.222656 103.386719 C 283.03125 103.386719 282.867188 103.453125 282.730469 103.589844 C 282.59375 103.722656 282.527344 103.886719 282.527344 104.078125 C 282.527344 104.265625 282.59375 104.429688 282.730469 104.566406 L 284.941406 106.761719 C 284.988281 106.828125 285.039062 106.890625 285.09375 106.945312 C 286.367188 108.210938 287.644531 109.46875 288.917969 110.734375 C 289.066406 110.859375 289.183594 111.007812 289.265625 111.183594 C 289.347656 111.359375 289.386719 111.546875 289.382812 111.738281 C 289.378906 111.933594 289.332031 112.117188 289.246094 112.289062 C 289.160156 112.460938 289.039062 112.609375 288.882812 112.726562 C 288.660156 112.90625 288.40625 113 288.117188 113.003906 C 287.828125 113.007812 287.574219 112.917969 287.347656 112.742188 C 286.804688 112.265625 286.304688 111.75 285.796875 111.234375 C 285.71875 111.132812 285.695312 111.023438 285.722656 110.898438 C 285.78125 110.699219 285.8125 110.496094 285.824219 110.289062 C 285.835938 110.082031 285.820312 109.878906 285.785156 109.671875 C 285.75 109.46875 285.6875 109.273438 285.605469 109.082031 C 285.523438 108.894531 285.421875 108.714844 285.296875 108.546875 C 285.175781 108.378906 285.035156 108.230469 284.878906 108.09375 C 284.71875 107.960938 284.546875 107.84375 284.363281 107.746094 C 284.179688 107.652344 283.984375 107.578125 283.785156 107.523438 C 283.582031 107.472656 283.378906 107.445312 283.167969 107.4375 C 283.117188 107.429688 283.066406 107.417969 283.019531 107.402344 C 282.878906 105.699219 281.933594 104.761719 280.183594 104.605469 C 280.03125 102.898438 279.101562 101.949219 277.398438 101.800781 C 277.316406 101.386719 277.199219 100.988281 277.050781 100.59375 C 276.960938 100.398438 276.851562 100.21875 276.722656 100.046875 C 276.589844 99.878906 276.4375 99.726562 276.269531 99.59375 C 276.101562 99.457031 275.921875 99.347656 275.722656 99.257812 C 275.527344 99.167969 275.324219 99.101562 275.113281 99.058594 C 274.902344 99.015625 274.6875 99 274.472656 99.011719 C 274.257812 99.019531 274.046875 99.054688 273.839844 99.113281 C 273.632812 99.175781 273.433594 99.257812 273.246094 99.363281 C 273.0625 99.472656 272.890625 99.597656 272.734375 99.746094 C 272.132812 100.277344 271.539062 100.828125 270.898438 101.410156 C 269.957031 100.429688 269.273438 99.296875 268.839844 98.011719 C 268.410156 96.726562 268.277344 95.410156 268.4375 94.0625 C 268.902344 89.933594 271.195312 87.132812 275.148438 85.796875 C 275.9375 85.535156 276.746094 85.378906 277.574219 85.328125 C 278.402344 85.28125 279.226562 85.339844 280.039062 85.507812 C 280.851562 85.675781 281.628906 85.945312 282.371094 86.316406 C 283.113281 86.691406 283.792969 87.152344 284.410156 87.703125 C 283.28125 88.820312 282.175781 89.914062 281.078125 91.007812 C 280.636719 91.445312 280.183594 91.875 279.78125 92.347656 C 279.539062 92.640625 279.355469 92.96875 279.238281 93.332031 C 279.117188 93.691406 279.066406 94.0625 279.089844 94.445312 C 279.109375 94.824219 279.199219 95.1875 279.359375 95.535156 C 279.515625 95.882812 279.734375 96.1875 280.007812 96.453125 C 280.28125 96.71875 280.59375 96.929688 280.945312 97.078125 C 281.296875 97.230469 281.664062 97.3125 282.046875 97.328125 C 282.429688 97.34375 282.804688 97.292969 283.167969 97.167969 C 283.53125 97.046875 283.859375 96.863281 284.152344 96.621094 C 284.664062 96.179688 286.699219 94.195312 288.011719 92.929688 C 290.664062 95.550781 295.363281 100.207031 297.441406 102.273438 C 297.585938 102.386719 297.699219 102.527344 297.785156 102.6875 C 297.867188 102.851562 297.914062 103.023438 297.921875 103.207031 C 297.929688 103.390625 297.902344 103.566406 297.832031 103.734375 C 297.761719 103.90625 297.664062 104.054688 297.527344 104.179688 Z M 302.570312 95.605469 C 302.421875 97.230469 301.90625 98.734375 301.035156 100.117188 C 300.78125 100.5 300.507812 100.867188 300.214844 101.222656 C 299.921875 101.574219 299.621094 101.914062 299.351562 102.25 C 298.949219 101.835938 298.570312 101.4375 298.195312 101.046875 C 298.195312 101.046875 297.660156 100.492188 297.078125 99.898438 C 296.238281 99.046875 292.761719 95.597656 288.007812 90.921875 C 287.101562 91.824219 283.949219 94.871094 283.328125 95.457031 C 283.039062 95.730469 282.695312 95.882812 282.296875 95.90625 C 281.898438 95.933594 281.539062 95.828125 281.21875 95.59375 C 281.015625 95.449219 280.851562 95.269531 280.730469 95.054688 C 280.609375 94.839844 280.539062 94.609375 280.523438 94.359375 C 280.507812 94.113281 280.546875 93.875 280.636719 93.644531 C 280.730469 93.414062 280.867188 93.214844 281.050781 93.046875 C 282.386719 91.710938 283.746094 90.390625 285.082031 89.050781 C 285.964844 88.066406 286.980469 87.238281 288.125 86.566406 C 289.566406 85.785156 291.109375 85.375 292.75 85.335938 C 294.359375 85.382812 295.890625 85.742188 297.351562 86.417969 C 297.882812 86.660156 298.382812 86.957031 298.847656 87.3125 C 299.203125 87.59375 299.535156 87.898438 299.84375 88.226562 C 300.152344 88.546875 300.4375 88.890625 300.691406 89.257812 C 300.976562 89.675781 301.230469 90.105469 301.457031 90.554688 C 302.3125 92.136719 302.683594 93.816406 302.570312 95.605469 Z M 302.570312 95.605469 " fill-opacity="1" fill-rule="nonzero"/></g></svg>