<svg xmlns="http://www.w3.org/2000/svg" xmlns:xlink="http://www.w3.org/1999/xlink" width="343" zoomAndPan="magnify" viewBox="0 0 257.25 217.499992" height="290" preserveAspectRatio="xMidYMid meet" version="1.0"><defs><g/></defs><g fill="#ffffff" fill-opacity="1"><g transform="translate(75.34113, 102.844089)"><g><path d="M 8.921875 0.453125 C 7.484375 0.453125 6.140625 0.128906 4.890625 -0.515625 C 4.328125 -0.796875 3.859375 -1.128906 3.484375 -1.515625 C 3.191406 -1.046875 2.835938 -0.628906 2.421875 -0.265625 C 2.054688 -0.00390625 1.851562 0.132812 1.8125 0.15625 L 1.0625 0.15625 L 1.0625 -5.59375 L 2.265625 -5.59375 C 2.566406 -4.601562 2.988281 -3.71875 3.53125 -2.9375 C 4.757812 -1.175781 6.351562 -0.296875 8.3125 -0.296875 C 9.457031 -0.296875 10.375 -0.640625 11.0625 -1.328125 C 11.75 -2.015625 12.09375 -2.929688 12.09375 -4.078125 C 12.09375 -4.742188 11.894531 -5.335938 11.5 -5.859375 C 11.113281 -6.390625 10.625 -6.851562 10.03125 -7.25 C 9.445312 -7.65625 8.632812 -8.160156 7.59375 -8.765625 C 6.257812 -9.515625 5.175781 -10.191406 4.34375 -10.796875 C 3.519531 -11.398438 2.816406 -12.160156 2.234375 -13.078125 C 1.648438 -13.992188 1.359375 -15.078125 1.359375 -16.328125 C 1.359375 -17.316406 1.632812 -18.207031 2.1875 -19 C 2.738281 -19.800781 3.566406 -20.4375 4.671875 -20.90625 C 5.785156 -21.382812 7.148438 -21.625 8.765625 -21.625 C 9.929688 -21.625 11.101562 -21.289062 12.28125 -20.625 C 12.71875 -20.375 13.160156 -20.050781 13.609375 -19.65625 C 13.953125 -20.175781 14.300781 -20.585938 14.65625 -20.890625 C 15.019531 -21.148438 15.222656 -21.289062 15.265625 -21.3125 L 16.03125 -21.3125 L 16.03125 -15.578125 L 14.8125 -15.578125 C 14.550781 -16.535156 14.160156 -17.410156 13.640625 -18.203125 C 13.148438 -18.960938 12.546875 -19.59375 11.828125 -20.09375 C 11.117188 -20.601562 10.300781 -20.859375 9.375 -20.859375 C 8.582031 -20.859375 7.90625 -20.546875 7.34375 -19.921875 C 6.78125 -19.296875 6.5 -18.5 6.5 -17.53125 C 6.5 -16.789062 6.710938 -16.125 7.140625 -15.53125 C 7.578125 -14.9375 8.113281 -14.414062 8.75 -13.96875 C 9.382812 -13.519531 10.25 -12.984375 11.34375 -12.359375 C 12.613281 -11.640625 13.640625 -10.992188 14.421875 -10.421875 C 15.203125 -9.859375 15.863281 -9.160156 16.40625 -8.328125 C 16.957031 -7.492188 17.234375 -6.53125 17.234375 -5.4375 C 17.234375 -4.351562 16.921875 -3.363281 16.296875 -2.46875 C 15.671875 -1.570312 14.734375 -0.859375 13.484375 -0.328125 C 12.234375 0.191406 10.710938 0.453125 8.921875 0.453125 Z M 8.921875 0.453125 "/></g></g></g><g fill="#ffffff" fill-opacity="1"><g transform="translate(93.333005, 102.844089)"><g><path d="M 9.21875 0.453125 C 6.71875 0.453125 4.753906 -0.253906 3.328125 -1.671875 C 1.910156 -3.097656 1.203125 -5.0625 1.203125 -7.5625 C 1.203125 -10.0625 1.910156 -12.019531 3.328125 -13.4375 C 4.753906 -14.863281 6.71875 -15.578125 9.21875 -15.578125 C 11.71875 -15.578125 13.675781 -14.863281 15.09375 -13.4375 C 16.519531 -12.019531 17.234375 -10.0625 17.234375 -7.5625 C 17.234375 -5.0625 16.519531 -3.097656 15.09375 -1.671875 C 13.675781 -0.253906 11.71875 0.453125 9.21875 0.453125 Z M 9.21875 -0.15625 C 10.03125 -0.15625 10.710938 -0.71875 11.265625 -1.84375 C 11.816406 -2.96875 12.09375 -4.875 12.09375 -7.5625 C 12.09375 -10.238281 11.816406 -12.140625 11.265625 -13.265625 C 10.710938 -14.398438 10.03125 -14.96875 9.21875 -14.96875 C 8.414062 -14.96875 7.734375 -14.398438 7.171875 -13.265625 C 6.617188 -12.140625 6.34375 -10.238281 6.34375 -7.5625 C 6.34375 -4.875 6.617188 -2.96875 7.171875 -1.84375 C 7.734375 -0.71875 8.414062 -0.15625 9.21875 -0.15625 Z M 9.21875 -0.15625 "/></g></g></g><g fill="#ffffff" fill-opacity="1"><g transform="translate(111.778455, 102.844089)"><g><path d="M 4.53125 6.5 C 3.625 6.5 2.914062 6.253906 2.40625 5.765625 C 1.90625 5.285156 1.65625 4.625 1.65625 3.78125 C 1.65625 3.007812 1.863281 2.410156 2.28125 1.984375 C 2.695312 1.566406 3.25 1.359375 3.9375 1.359375 C 4.09375 1.359375 4.25 1.375 4.40625 1.40625 C 4.570312 1.4375 4.6875 1.453125 4.75 1.453125 L 5.140625 1.515625 L 5.140625 5.59375 C 5.722656 5.488281 6.234375 5.164062 6.671875 4.625 C 7.117188 4.082031 7.613281 3.144531 8.15625 1.8125 L 8.765625 0.296875 L 0.90625 -14.203125 L -0.609375 -14.65625 L -0.609375 -15.109375 L 3.171875 -15.109375 C 4.222656 -15.109375 5.054688 -14.890625 5.671875 -14.453125 C 6.285156 -14.023438 6.8125 -13.390625 7.25 -12.546875 L 11.03125 -5.5625 L 14.203125 -13.75 L 11.9375 -14.65625 L 11.9375 -15.109375 L 17.53125 -15.109375 L 17.53125 -14.65625 L 15.109375 -13.75 L 9.0625 1.8125 C 8.425781 3.46875 7.742188 4.660156 7.015625 5.390625 C 6.285156 6.128906 5.457031 6.5 4.53125 6.5 Z M 4.53125 6.5 "/></g></g></g><g fill="#ffffff" fill-opacity="1"><g transform="translate(75.34113, 139.101798)"><g><path d="M 2.777344 -1.53125 L 2.777344 -6.195312 L 2.140625 -6.195312 L 2.140625 -1.53125 C 2.140625 -1.136719 1.984375 -0.867188 1.695312 -0.703125 C 1.449219 -0.554688 1.148438 -0.511719 0.792969 -0.554688 C 0.464844 -0.59375 0.210938 -0.683594 0.046875 -0.828125 L 0.046875 -0.128906 C 0.101562 -0.0742188 0.210938 -0.0273438 0.375 0.0195312 C 0.539062 0.0625 0.71875 0.0898438 0.917969 0.0898438 C 1.410156 0.109375 1.820312 0.0078125 2.148438 -0.21875 C 2.570312 -0.492188 2.777344 -0.929688 2.777344 -1.53125 Z M 2.777344 -1.53125 "/></g></g></g><g fill="#ffffff" fill-opacity="1"><g transform="translate(80.068166, 139.101798)"><g><path d="M 5.164062 -2.050781 L 5.164062 -6.195312 L 4.527344 -6.195312 L 4.527344 -1.957031 C 4.527344 -1.703125 4.480469 -1.492188 4.390625 -1.320312 C 4.125 -0.8125 3.617188 -0.554688 2.859375 -0.554688 C 2.367188 -0.554688 1.976562 -0.664062 1.683594 -0.882812 C 1.347656 -1.128906 1.183594 -1.484375 1.183594 -1.957031 L 1.183594 -6.195312 L 0.546875 -6.195312 L 0.546875 -2.050781 C 0.546875 -1.375 0.765625 -0.847656 1.203125 -0.464844 C 1.613281 -0.101562 2.167969 0.0820312 2.859375 0.0820312 C 3.542969 0.0820312 4.089844 -0.101562 4.507812 -0.464844 C 4.945312 -0.847656 5.164062 -1.375 5.164062 -2.050781 Z M 5.164062 -2.050781 "/></g></g></g><g fill="#ffffff" fill-opacity="1"><g transform="translate(87.181325, 139.101798)"><g><path d="M 1.320312 -4.5625 L 4.800781 0.382812 L 4.800781 -6.195312 L 4.164062 -6.195312 L 4.164062 -1.640625 L 0.683594 -6.585938 L 0.683594 0 L 1.320312 0 Z M 1.320312 -4.5625 "/></g></g></g><g fill="#ffffff" fill-opacity="1"><g transform="translate(94.066802, 139.101798)"><g><path d="M 0.183594 -5.621094 L 1.683594 -5.621094 L 1.683594 -0.0195312 L 2.324219 -0.0195312 L 2.324219 -5.621094 L 3.824219 -5.621094 L 3.824219 -6.210938 L 0.183594 -6.210938 Z M 0.183594 -5.621094 "/></g></g></g><g fill="#ffffff" fill-opacity="1"><g transform="translate(99.476891, 139.101798)"><g><path d="M 1.683594 -2.277344 L 2.8125 -5.128906 L 3.933594 -2.277344 Z M 5.527344 0 L 2.8125 -6.621094 L 0.0898438 0 L 0.785156 0 L 1.449219 -1.683594 L 4.171875 -1.683594 L 4.835938 0 Z M 5.527344 0 "/></g></g></g><g fill="#ffffff" fill-opacity="1"><g transform="translate(106.498973, 139.101798)"><g><path d="M 2.394531 -2.914062 C 3.195312 -2.722656 3.742188 -2.515625 4.035156 -2.277344 C 4.234375 -2.113281 4.335938 -1.902344 4.335938 -1.648438 C 4.335938 -1.394531 4.28125 -1.183594 4.171875 -1.039062 C 3.898438 -0.65625 3.40625 -0.464844 2.714844 -0.464844 C 1.75 -0.464844 1.203125 -0.792969 1.082031 -1.449219 L 0.335938 -1.449219 C 0.554688 -0.402344 1.347656 0.117188 2.714844 0.117188 C 3.324219 0.117188 3.835938 -0.0078125 4.246094 -0.28125 C 4.734375 -0.601562 4.992188 -1.074219 4.992188 -1.695312 C 4.992188 -2.203125 4.789062 -2.597656 4.390625 -2.867188 C 4.109375 -3.070312 3.652344 -3.25 3.023438 -3.414062 C 2.386719 -3.578125 1.976562 -3.714844 1.785156 -3.816406 C 1.367188 -4.027344 1.15625 -4.316406 1.164062 -4.699219 C 1.164062 -4.898438 1.203125 -5.074219 1.292969 -5.199219 C 1.53125 -5.554688 1.949219 -5.738281 2.550781 -5.738281 C 3.398438 -5.738281 3.878906 -5.464844 4.007812 -4.9375 L 4.699219 -4.9375 C 4.472656 -5.828125 3.753906 -6.285156 2.550781 -6.285156 C 2.003906 -6.285156 1.519531 -6.140625 1.121094 -5.847656 C 0.710938 -5.554688 0.5 -5.128906 0.5 -4.546875 C 0.5 -3.753906 1.136719 -3.207031 2.394531 -2.914062 Z M 2.394531 -2.914062 "/></g></g></g><g fill="#ffffff" fill-opacity="1"><g transform="translate(113.129439, 139.101798)"><g/></g></g><g fill="#ffffff" fill-opacity="1"><g transform="translate(116.991282, 139.101798)"><g><path d="M 6.367188 -1.894531 L 5.664062 -1.894531 C 5.445312 -1.492188 5.144531 -1.164062 4.761719 -0.929688 C 4.382812 -0.683594 3.953125 -0.566406 3.496094 -0.566406 C 2.8125 -0.566406 2.230469 -0.8125 1.75 -1.320312 C 1.273438 -1.804688 1.046875 -2.394531 1.046875 -3.085938 C 1.046875 -3.78125 1.273438 -4.371094 1.75 -4.863281 C 1.96875 -5.089844 2.230469 -5.273438 2.53125 -5.410156 C 2.824219 -5.546875 3.113281 -5.621094 3.40625 -5.621094 C 3.6875 -5.621094 3.933594 -5.582031 4.152344 -5.519531 C 4.816406 -5.320312 5.320312 -4.917969 5.65625 -4.308594 L 6.359375 -4.308594 C 6.121094 -4.890625 5.746094 -5.363281 5.226562 -5.730469 C 4.699219 -6.09375 4.125 -6.277344 3.496094 -6.277344 C 2.632812 -6.277344 1.902344 -5.957031 1.300781 -5.328125 C 1.019531 -5.035156 0.800781 -4.691406 0.648438 -4.308594 C 0.484375 -3.925781 0.410156 -3.515625 0.410156 -3.085938 C 0.410156 -2.214844 0.703125 -1.476562 1.300781 -0.855469 C 1.902344 -0.21875 2.632812 0.0898438 3.496094 0.0898438 C 4.125 0.0898438 4.699219 -0.0898438 5.238281 -0.457031 C 5.757812 -0.820312 6.128906 -1.292969 6.367188 -1.894531 Z M 6.367188 -1.894531 "/></g></g></g><g fill="#ffffff" fill-opacity="1"><g transform="translate(125.033387, 139.101798)"><g><path d="M 1.320312 -3.058594 L 1.320312 -5.582031 L 2.757812 -5.582031 C 3.132812 -5.582031 3.433594 -5.464844 3.660156 -5.226562 C 3.878906 -4.992188 4 -4.699219 4 -4.335938 C 4 -3.972656 3.878906 -3.671875 3.644531 -3.425781 C 3.40625 -3.179688 3.113281 -3.058594 2.757812 -3.058594 Z M 4.636719 -4.328125 C 4.636719 -4.855469 4.4375 -5.308594 4.054688 -5.664062 C 3.679688 -6.011719 3.214844 -6.195312 2.667969 -6.195312 L 0.683594 -6.195312 L 0.683594 0 L 1.320312 0 L 1.320312 -2.449219 L 2.058594 -2.449219 L 3.878906 0 L 4.734375 0 L 2.824219 -2.449219 C 3.304688 -2.476562 3.714844 -2.652344 4.054688 -2.96875 C 4.4375 -3.324219 4.636719 -3.78125 4.636719 -4.328125 Z M 4.636719 -4.328125 "/></g></g></g><g fill="#ffffff" fill-opacity="1"><g transform="translate(131.390639, 139.101798)"><g><path d="M 4.363281 0 L 4.363281 -0.59375 L 1.320312 -0.59375 L 1.320312 -2.796875 L 4.273438 -2.796875 L 4.273438 -3.398438 L 1.320312 -3.398438 L 1.320312 -5.601562 L 4.363281 -5.601562 L 4.363281 -6.195312 L 0.683594 -6.195312 L 0.683594 0 Z M 4.363281 0 "/></g></g></g><g fill="#ffffff" fill-opacity="1"><g transform="translate(137.838961, 139.101798)"><g><path d="M 6.367188 -1.894531 L 5.664062 -1.894531 C 5.445312 -1.492188 5.144531 -1.164062 4.761719 -0.929688 C 4.382812 -0.683594 3.953125 -0.566406 3.496094 -0.566406 C 2.8125 -0.566406 2.230469 -0.8125 1.75 -1.320312 C 1.273438 -1.804688 1.046875 -2.394531 1.046875 -3.085938 C 1.046875 -3.78125 1.273438 -4.371094 1.75 -4.863281 C 1.96875 -5.089844 2.230469 -5.273438 2.53125 -5.410156 C 2.824219 -5.546875 3.113281 -5.621094 3.40625 -5.621094 C 3.6875 -5.621094 3.933594 -5.582031 4.152344 -5.519531 C 4.816406 -5.320312 5.320312 -4.917969 5.65625 -4.308594 L 6.359375 -4.308594 C 6.121094 -4.890625 5.746094 -5.363281 5.226562 -5.730469 C 4.699219 -6.09375 4.125 -6.277344 3.496094 -6.277344 C 2.632812 -6.277344 1.902344 -5.957031 1.300781 -5.328125 C 1.019531 -5.035156 0.800781 -4.691406 0.648438 -4.308594 C 0.484375 -3.925781 0.410156 -3.515625 0.410156 -3.085938 C 0.410156 -2.214844 0.703125 -1.476562 1.300781 -0.855469 C 1.902344 -0.21875 2.632812 0.0898438 3.496094 0.0898438 C 4.125 0.0898438 4.699219 -0.0898438 5.238281 -0.457031 C 5.757812 -0.820312 6.128906 -1.292969 6.367188 -1.894531 Z M 6.367188 -1.894531 "/></g></g></g><g fill="#ffffff" fill-opacity="1"><g transform="translate(145.881066, 139.101798)"><g><path d="M 4.363281 0 L 4.363281 -0.59375 L 1.320312 -0.59375 L 1.320312 -2.796875 L 4.273438 -2.796875 L 4.273438 -3.398438 L 1.320312 -3.398438 L 1.320312 -5.601562 L 4.363281 -5.601562 L 4.363281 -6.195312 L 0.683594 -6.195312 L 0.683594 0 Z M 4.363281 0 "/></g></g></g><g fill="#ffffff" fill-opacity="1"><g transform="translate(152.329387, 139.101798)"><g><path d="M 6.394531 0 L 7.039062 0 L 5.601562 -6.601562 L 3.570312 -1.300781 L 1.539062 -6.601562 L 0.0898438 0 L 0.746094 0 L 1.703125 -4.410156 L 3.570312 0.363281 L 5.429688 -4.410156 Z M 6.394531 0 "/></g></g></g><g fill="#ffffff" fill-opacity="1"><g transform="translate(160.863286, 139.101798)"><g><path d="M 6.140625 -3.113281 C 6.140625 -2.40625 5.882812 -1.804688 5.390625 -1.3125 C 4.890625 -0.8125 4.289062 -0.566406 3.589844 -0.566406 C 2.886719 -0.566406 2.285156 -0.8125 1.792969 -1.3125 C 1.292969 -1.804688 1.046875 -2.40625 1.046875 -3.113281 C 1.046875 -3.808594 1.292969 -4.410156 1.792969 -4.910156 C 2.285156 -5.402344 2.886719 -5.65625 3.589844 -5.65625 C 4.289062 -5.65625 4.890625 -5.402344 5.390625 -4.910156 C 5.882812 -4.410156 6.140625 -3.808594 6.140625 -3.113281 Z M 6.777344 -3.113281 C 6.777344 -3.550781 6.683594 -3.960938 6.519531 -4.355469 C 6.359375 -4.734375 6.128906 -5.074219 5.839844 -5.363281 C 5.546875 -5.648438 5.210938 -5.875 4.828125 -6.039062 C 4.4375 -6.203125 4.027344 -6.292969 3.589844 -6.292969 C 3.152344 -6.292969 2.734375 -6.203125 2.351562 -6.039062 C 1.96875 -5.875 1.628906 -5.648438 1.339844 -5.363281 C 1.046875 -5.074219 0.820312 -4.734375 0.65625 -4.355469 C 0.492188 -3.960938 0.410156 -3.550781 0.410156 -3.113281 C 0.410156 -2.679688 0.492188 -2.257812 0.65625 -1.875 C 0.820312 -1.484375 1.046875 -1.148438 1.339844 -0.855469 C 1.628906 -0.566406 1.96875 -0.335938 2.351562 -0.171875 C 2.734375 -0.0078125 3.152344 0.0742188 3.589844 0.0742188 C 4.027344 0.0742188 4.4375 -0.0078125 4.828125 -0.171875 C 5.210938 -0.335938 5.546875 -0.566406 5.839844 -0.855469 C 6.128906 -1.148438 6.359375 -1.484375 6.519531 -1.875 C 6.683594 -2.257812 6.777344 -2.679688 6.777344 -3.113281 Z M 6.777344 -3.113281 "/></g></g></g><g fill="#ffffff" fill-opacity="1"><g transform="translate(169.45183, 139.101798)"><g><path d="M 2.394531 -2.914062 C 3.195312 -2.722656 3.742188 -2.515625 4.035156 -2.277344 C 4.234375 -2.113281 4.335938 -1.902344 4.335938 -1.648438 C 4.335938 -1.394531 4.28125 -1.183594 4.171875 -1.039062 C 3.898438 -0.65625 3.40625 -0.464844 2.714844 -0.464844 C 1.75 -0.464844 1.203125 -0.792969 1.082031 -1.449219 L 0.335938 -1.449219 C 0.554688 -0.402344 1.347656 0.117188 2.714844 0.117188 C 3.324219 0.117188 3.835938 -0.0078125 4.246094 -0.28125 C 4.734375 -0.601562 4.992188 -1.074219 4.992188 -1.695312 C 4.992188 -2.203125 4.789062 -2.597656 4.390625 -2.867188 C 4.109375 -3.070312 3.652344 -3.25 3.023438 -3.414062 C 2.386719 -3.578125 1.976562 -3.714844 1.785156 -3.816406 C 1.367188 -4.027344 1.15625 -4.316406 1.164062 -4.699219 C 1.164062 -4.898438 1.203125 -5.074219 1.292969 -5.199219 C 1.53125 -5.554688 1.949219 -5.738281 2.550781 -5.738281 C 3.398438 -5.738281 3.878906 -5.464844 4.007812 -4.9375 L 4.699219 -4.9375 C 4.472656 -5.828125 3.753906 -6.285156 2.550781 -6.285156 C 2.003906 -6.285156 1.519531 -6.140625 1.121094 -5.847656 C 0.710938 -5.554688 0.5 -5.128906 0.5 -4.546875 C 0.5 -3.753906 1.136719 -3.207031 2.394531 -2.914062 Z M 2.394531 -2.914062 "/></g></g></g><g fill="#ffffff" fill-opacity="1"><g transform="translate(75.34113, 127.212951)"><g><path d="M 9.234375 0.46875 C 7.753906 0.46875 6.363281 0.132812 5.0625 -0.53125 C 4.476562 -0.820312 3.988281 -1.164062 3.59375 -1.5625 C 3.300781 -1.082031 2.9375 -0.65625 2.5 -0.28125 C 2.125 -0.0078125 1.914062 0.132812 1.875 0.15625 L 1.09375 0.15625 L 1.09375 -5.796875 L 2.34375 -5.796875 C 2.65625 -4.765625 3.09375 -3.84375 3.65625 -3.03125 C 4.9375 -1.21875 6.585938 -0.3125 8.609375 -0.3125 C 9.796875 -0.3125 10.742188 -0.664062 11.453125 -1.375 C 12.160156 -2.082031 12.515625 -3.03125 12.515625 -4.21875 C 12.515625 -4.914062 12.3125 -5.535156 11.90625 -6.078125 C 11.5 -6.617188 10.992188 -7.097656 10.390625 -7.515625 C 9.785156 -7.929688 8.941406 -8.453125 7.859375 -9.078125 C 6.484375 -9.847656 5.363281 -10.546875 4.5 -11.171875 C 3.644531 -11.796875 2.914062 -12.582031 2.3125 -13.53125 C 1.707031 -14.476562 1.40625 -15.601562 1.40625 -16.90625 C 1.40625 -17.925781 1.691406 -18.847656 2.265625 -19.671875 C 2.835938 -20.492188 3.695312 -21.148438 4.84375 -21.640625 C 6 -22.128906 7.410156 -22.375 9.078125 -22.375 C 10.285156 -22.375 11.492188 -22.03125 12.703125 -21.34375 C 13.160156 -21.09375 13.617188 -20.757812 14.078125 -20.34375 C 14.429688 -20.882812 14.796875 -21.3125 15.171875 -21.625 C 15.554688 -21.894531 15.769531 -22.039062 15.8125 -22.0625 L 16.59375 -22.0625 L 16.59375 -16.125 L 15.328125 -16.125 C 15.054688 -17.125 14.648438 -18.03125 14.109375 -18.84375 C 13.609375 -19.632812 12.988281 -20.289062 12.25 -20.8125 C 11.507812 -21.332031 10.660156 -21.59375 9.703125 -21.59375 C 8.890625 -21.59375 8.191406 -21.269531 7.609375 -20.625 C 7.023438 -19.976562 6.734375 -19.15625 6.734375 -18.15625 C 6.734375 -17.382812 6.957031 -16.6875 7.40625 -16.0625 C 7.851562 -15.445312 8.40625 -14.910156 9.0625 -14.453125 C 9.71875 -13.992188 10.609375 -13.441406 11.734375 -12.796875 C 13.046875 -12.046875 14.109375 -11.378906 14.921875 -10.796875 C 15.742188 -10.210938 16.4375 -9.488281 17 -8.625 C 17.5625 -7.757812 17.84375 -6.765625 17.84375 -5.640625 C 17.84375 -4.503906 17.519531 -3.472656 16.875 -2.546875 C 16.226562 -1.617188 15.253906 -0.882812 13.953125 -0.34375 C 12.660156 0.195312 11.085938 0.46875 9.234375 0.46875 Z M 9.234375 0.46875 "/></g></g></g><g fill="#ffffff" fill-opacity="1"><g transform="translate(93.966584, 127.212951)"><g><path d="M 9.546875 0.46875 C 6.960938 0.46875 4.929688 -0.265625 3.453125 -1.734375 C 1.984375 -3.203125 1.25 -5.234375 1.25 -7.828125 C 1.25 -10.410156 1.984375 -12.4375 3.453125 -13.90625 C 4.929688 -15.382812 6.960938 -16.125 9.546875 -16.125 C 12.128906 -16.125 14.15625 -15.382812 15.625 -13.90625 C 17.101562 -12.4375 17.84375 -10.410156 17.84375 -7.828125 C 17.84375 -5.234375 17.101562 -3.203125 15.625 -1.734375 C 14.15625 -0.265625 12.128906 0.46875 9.546875 0.46875 Z M 9.546875 -0.15625 C 10.378906 -0.15625 11.082031 -0.738281 11.65625 -1.90625 C 12.226562 -3.070312 12.515625 -5.046875 12.515625 -7.828125 C 12.515625 -10.597656 12.226562 -12.566406 11.65625 -13.734375 C 11.082031 -14.898438 10.378906 -15.484375 9.546875 -15.484375 C 8.710938 -15.484375 8.007812 -14.898438 7.4375 -13.734375 C 6.863281 -12.566406 6.578125 -10.597656 6.578125 -7.828125 C 6.578125 -5.046875 6.863281 -3.070312 7.4375 -1.90625 C 8.007812 -0.738281 8.710938 -0.15625 9.546875 -0.15625 Z M 9.546875 -0.15625 "/></g></g></g><g fill="#ffffff" fill-opacity="1"><g transform="translate(113.061581, 127.212951)"><g><path d="M 9.703125 0.46875 C 7.035156 0.46875 4.957031 -0.265625 3.46875 -1.734375 C 1.988281 -3.203125 1.25 -5.234375 1.25 -7.828125 C 1.25 -10.410156 1.988281 -12.4375 3.46875 -13.90625 C 4.957031 -15.382812 7.035156 -16.125 9.703125 -16.125 C 11.617188 -16.125 13.0625 -15.785156 14.03125 -15.109375 C 15 -14.441406 15.484375 -13.628906 15.484375 -12.671875 C 15.484375 -11.960938 15.269531 -11.394531 14.84375 -10.96875 C 14.414062 -10.539062 13.847656 -10.328125 13.140625 -10.328125 C 12.847656 -10.328125 12.554688 -10.347656 12.265625 -10.390625 L 11.890625 -10.484375 L 11.890625 -15.171875 L 11.453125 -15.328125 C 11.140625 -15.429688 10.765625 -15.484375 10.328125 -15.484375 C 9.140625 -15.484375 8.21875 -14.921875 7.5625 -13.796875 C 6.90625 -12.671875 6.578125 -10.679688 6.578125 -7.828125 C 6.578125 -5.046875 6.90625 -3.097656 7.5625 -1.984375 C 8.21875 -0.867188 9.140625 -0.3125 10.328125 -0.3125 C 11.140625 -0.3125 11.894531 -0.503906 12.59375 -0.890625 C 13.289062 -1.273438 13.84375 -1.785156 14.25 -2.421875 C 14.65625 -3.054688 14.859375 -3.707031 14.859375 -4.375 L 15.65625 -4.375 C 15.65625 -3.539062 15.398438 -2.75 14.890625 -2 C 14.390625 -1.25 13.691406 -0.648438 12.796875 -0.203125 C 11.898438 0.242188 10.867188 0.46875 9.703125 0.46875 Z M 9.703125 0.46875 "/></g></g></g><g fill="#ffffff" fill-opacity="1"><g transform="translate(129.652314, 127.212951)"><g><path d="M 1.25 -0.46875 L 3.125 -0.9375 L 3.125 -14.703125 L 1.25 -15.171875 L 1.25 -15.65625 L 5.328125 -15.65625 C 7.203125 -15.65625 8.140625 -14.710938 8.140625 -12.828125 L 8.140625 -0.9375 L 10.015625 -0.46875 L 10.015625 0 L 1.25 0 Z M 5.328125 -17.53125 C 4.703125 -17.53125 4.179688 -17.738281 3.765625 -18.15625 C 3.347656 -18.570312 3.140625 -19.09375 3.140625 -19.71875 C 3.140625 -20.34375 3.347656 -20.863281 3.765625 -21.28125 C 4.179688 -21.695312 4.703125 -21.90625 5.328125 -21.90625 C 5.953125 -21.90625 6.472656 -21.695312 6.890625 -21.28125 C 7.304688 -20.863281 7.515625 -20.34375 7.515625 -19.71875 C 7.515625 -19.09375 7.304688 -18.570312 6.890625 -18.15625 C 6.472656 -17.738281 5.953125 -17.53125 5.328125 -17.53125 Z M 5.328125 -17.53125 "/></g></g></g><g fill="#ffffff" fill-opacity="1"><g transform="translate(140.295429, 127.212951)"><g><path d="M 7.359375 0.46875 C 5.492188 0.46875 4.0625 0.0703125 3.0625 -0.71875 C 2.0625 -1.507812 1.5625 -2.519531 1.5625 -3.75 C 1.5625 -4.5625 1.738281 -5.367188 2.09375 -6.171875 C 2.238281 -6.546875 2.425781 -6.890625 2.65625 -7.203125 C 3.507812 -7.410156 4.441406 -7.597656 5.453125 -7.765625 C 7.703125 -8.140625 9.691406 -8.367188 11.421875 -8.453125 L 11.421875 -9.390625 C 11.421875 -11.703125 11.140625 -13.296875 10.578125 -14.171875 C 10.015625 -15.046875 9.148438 -15.484375 7.984375 -15.484375 C 7.546875 -15.484375 7.171875 -15.429688 6.859375 -15.328125 L 6.421875 -15.171875 L 6.421875 -10.484375 L 6.015625 -10.390625 C 5.679688 -10.347656 5.394531 -10.328125 5.15625 -10.328125 C 4.445312 -10.328125 3.878906 -10.539062 3.453125 -10.96875 C 3.023438 -11.394531 2.8125 -11.960938 2.8125 -12.671875 C 2.8125 -13.628906 3.296875 -14.441406 4.265625 -15.109375 C 5.242188 -15.785156 6.691406 -16.125 8.609375 -16.125 C 10.234375 -16.125 11.632812 -15.832031 12.8125 -15.25 C 13.988281 -14.675781 14.882812 -13.882812 15.5 -12.875 C 16.125 -11.863281 16.4375 -10.703125 16.4375 -9.390625 L 16.4375 -0.9375 L 18.3125 -0.46875 L 18.3125 0 L 15.484375 0 C 14.234375 0 13.265625 -0.382812 12.578125 -1.15625 C 12.285156 -1.46875 12.054688 -1.863281 11.890625 -2.34375 C 11.597656 -1.820312 11.253906 -1.351562 10.859375 -0.9375 C 9.921875 0 8.753906 0.46875 7.359375 0.46875 Z M 8.609375 -0.625 C 9.378906 -0.625 10.078125 -1.039062 10.703125 -1.875 C 10.929688 -2.1875 11.171875 -2.601562 11.421875 -3.125 L 11.421875 -7.671875 C 10.460938 -7.671875 9.546875 -7.617188 8.671875 -7.515625 C 8.023438 -7.429688 7.585938 -7.378906 7.359375 -7.359375 C 7.253906 -7.128906 7.148438 -6.816406 7.046875 -6.421875 C 6.835938 -5.628906 6.734375 -4.84375 6.734375 -4.0625 C 6.734375 -2.894531 6.910156 -2.03125 7.265625 -1.46875 C 7.617188 -0.90625 8.066406 -0.625 8.609375 -0.625 Z M 8.609375 -0.625 "/></g></g></g></svg>